<svg width="61" height="57" viewBox="0 0 61 57" fill="none" xmlns="http://www.w3.org/2000/svg">
<g clip-path="url(#clip0)">
<path d="M38.9033 28.4909H16.8061V0.560616H38.9033C48.4741 -0.279474 56.0106 7.61736 55.4984 15.5035C55.0254 22.8069 47.7023 29.356 38.9033 28.4909Z" fill="white"/>
<path d="M44.5939 56.4214H16.8061V28.4875H44.5939C53.1297 27.6081 60.4599 34.4503 60.4279 42.508C60.3959 50.5658 53.0906 57.3008 44.5939 56.4214Z" fill="white"/>
<path d="M29.496 41.2643L16.8025 28.4878L29.496 15.7291C30.3245 14.8688 31.315 14.1828 32.4098 13.7111C33.5047 13.2395 34.682 12.9915 35.8731 12.9817C37.0643 12.972 38.2454 13.2006 39.3478 13.6543C40.4502 14.1079 41.4517 14.7776 42.294 15.6242C43.1363 16.4708 43.8025 17.4775 44.2539 18.5855C44.7052 19.6935 44.9327 20.8807 44.9229 22.078C44.9132 23.2752 44.6665 24.4586 44.1973 25.559C43.728 26.6595 43.0455 27.6551 42.1896 28.4878C43.0242 29.3255 43.6865 30.3203 44.1387 31.4153C44.5908 32.5103 44.8239 33.6841 44.8248 34.8697C44.8256 36.0553 44.5941 37.2294 44.1435 38.3251C43.6928 39.4207 43.0319 40.4164 42.1985 41.2553C41.365 42.0942 40.3753 42.76 39.2859 43.2144C38.1964 43.6689 37.0286 43.9032 35.8491 43.9041C34.6696 43.9049 33.5014 43.6722 32.4114 43.2192C31.3213 42.7663 30.3307 42.102 29.496 41.2643Z" fill="black"/>
<path d="M15.4439 28.0367L8.02834 19.4928C6.2038 17.6661 3.36563 17.6482 1.74737 19.1353C-0.0771665 20.8155 -0.0771666 24.1723 2.18484 26.0527C4.01527 27.5472 6.21164 28.5198 8.54417 28.8689C10.8767 29.2179 13.2597 28.9305 15.4439 28.0367Z" fill="white"/>
<path d="M14.0461 30.9581C11.8519 30.3778 9.53856 30.4386 7.37749 31.1332C5.99039 31.5935 4.70097 32.3101 3.57547 33.246C2.96287 33.7778 2.54908 34.5037 2.40245 35.3039C2.25582 36.104 2.38513 36.9305 2.76902 37.6468C3.15291 38.3631 3.76841 38.9264 4.51384 39.2435C5.25927 39.5607 6.09003 39.6127 6.86889 39.3911C8.71782 38.7791 10.3645 37.6694 11.6299 36.1826C12.8952 34.6958 13.731 32.8888 14.0461 30.9581Z" fill="white"/>
</g>
<defs>
<clipPath id="clip0">
<rect width="60" height="56" fill="white" transform="translate(0.431435 0.5)"/>
</clipPath>
</defs>
</svg>
