<svg width="60" height="56" viewBox="0 0 60 56" fill="none" xmlns="http://www.w3.org/2000/svg">
<g clip-path="url(#clip0)">
<path d="M38.4718 27.9911H16.3746V0.0607684H38.4718C48.0427 -0.779321 55.5791 7.11752 55.067 15.0036C54.594 22.307 47.2709 28.8562 38.4718 27.9911Z" fill="black"/>
<path d="M44.1624 55.9214H16.3746V27.9875H44.1624C52.6983 27.1081 60.0285 33.9503 59.9965 42.008C59.9644 50.0657 52.6592 56.8008 44.1624 55.9214Z" fill="black"/>
<path d="M29.0646 40.764L16.3711 27.9875L29.0646 15.2289C29.893 14.3685 30.8835 13.6825 31.9784 13.2109C33.0732 12.7392 34.2505 12.4912 35.4417 12.4815C36.6328 12.4717 37.814 12.7003 38.9164 13.154C40.0187 13.6076 41.0202 14.2773 41.8625 15.1239C42.7048 15.9705 43.3711 16.9772 43.8224 18.0852C44.2738 19.1932 44.5012 20.3804 44.4915 21.5777C44.4818 22.7749 44.2351 23.9583 43.7658 25.0587C43.2965 26.1592 42.6141 27.1548 41.7581 27.9875C42.5928 28.8252 43.2551 29.82 43.7072 30.915C44.1594 32.01 44.3925 33.1838 44.3933 34.3694C44.3942 35.555 44.1627 36.7291 43.712 37.8248C43.2614 38.9204 42.6005 39.9161 41.767 40.755C40.9336 41.594 39.9439 42.2597 38.8544 42.7141C37.765 43.1686 36.5972 43.403 35.4177 43.4038C34.2381 43.4046 33.07 43.1719 31.9799 42.719C30.8899 42.266 29.8992 41.6017 29.0646 40.764Z" fill="white"/>
<path d="M15.0124 27.5371L7.59691 18.9932C5.77237 17.1664 2.93419 17.1485 1.31594 18.6357C-0.508602 20.3159 -0.508602 23.6726 1.7534 25.553C3.58384 27.0475 5.7802 28.0202 8.11273 28.3692C10.4453 28.7182 12.8283 28.4308 15.0124 27.5371Z" fill="#00A54A"/>
<path d="M13.6147 30.4577C11.4205 29.8775 9.10713 29.9382 6.94606 30.6329C5.55896 31.0932 4.26954 31.8097 3.14404 32.7456C2.53144 33.2774 2.11765 34.0034 1.97102 34.8035C1.82439 35.6037 1.9537 36.4302 2.33759 37.1465C2.72148 37.8627 3.33698 38.426 4.08241 38.7432C4.82784 39.0603 5.6586 39.1124 6.43746 38.8908C8.28639 38.2788 9.93304 37.1691 11.1984 35.6823C12.4638 34.1955 13.2995 32.3885 13.6147 30.4577Z" fill="#008238"/>
</g>
<defs>
<clipPath id="clip0">
<rect width="60" height="56" fill="white"/>
</clipPath>
</defs>
</svg>