<svg width="648" height="721" viewBox="0 0 648 721" fill="none" xmlns="http://www.w3.org/2000/svg">
<line x1="282.896" y1="233.757" x2="510.105" y2="121.978" stroke="black" stroke-width="5"/>
<line x1="283.542" y1="232.032" x2="521.01" y2="418.146" stroke="black" stroke-width="5"/>
<line x1="197.586" y1="545.35" x2="281.586" y2="233.35" stroke="black" stroke-width="5"/>
<line x1="471.73" y1="647.047" x2="281.73" y2="235.047" stroke="black" stroke-width="5"/>
<line x1="471.55" y1="643.502" x2="517.018" y2="419.616" stroke="black" stroke-width="5"/>
<line x1="79.5454" y1="70.0349" x2="285.545" y2="232.035" stroke="black" stroke-width="5"/>
<line x1="84.6731" y1="355.881" x2="282.673" y2="231.881" stroke="black" stroke-width="5"/>
<line x1="509.719" y1="122.484" x2="86.8716" y2="74.6146" stroke="black" stroke-width="5"/>
<line x1="513.501" y1="418.05" x2="507.501" y2="120.05" stroke="black" stroke-width="5"/>
<line x1="88.1441" y1="354.714" x2="202.087" y2="544.748" stroke="black" stroke-width="5"/>
<line x1="82.4992" y1="69.9365" x2="89.8192" y2="357.933" stroke="black" stroke-width="5"/>
<line x1="200.887" y1="539.663" x2="474.88" y2="643.663" stroke="black" stroke-width="5"/>
<line x1="519.667" y1="420.478" x2="86.987" y2="362.31" stroke="black" stroke-width="5"/>
<line x1="506.03" y1="123.46" x2="202.03" y2="546.106" stroke="black" stroke-width="5"/>
<line x1="82.4224" y1="71.3818" x2="202.366" y2="541.382" stroke="black" stroke-width="5"/>
<line x1="506.496" y1="120.143" x2="476.274" y2="648.017" stroke="black" stroke-width="5"/>
<line x1="516.933" y1="420.319" x2="201.986" y2="546.965" stroke="black" stroke-width="5"/>
<line x1="472.516" y1="648.012" x2="84.5161" y2="361.844" stroke="black" stroke-width="5"/>
<line x1="78.0568" y1="68.5788" x2="477.627" y2="646.851" stroke="black" stroke-width="5"/>
<path d="M644 420.114C546.735 337.671 492.202 333.584 394.937 420.114C498.041 509.646 551.969 500.367 644 420.114Z" fill="black" stroke="white" stroke-width="5"/>
<circle cx="519.468" cy="420.114" r="43.3406" fill="white"/>
<path d="M410.5 237.937C304.228 147.859 244.646 143.394 138.373 237.937C251.025 335.759 309.946 325.621 410.5 237.937Z" fill="#00A54A" stroke="white" stroke-width="5"/>
<circle cx="274.437" cy="237.937" r="47.354" fill="white"/>
<path d="M314.94 547.886C225.989 472.49 176.118 468.753 87.1676 547.886C181.458 629.764 230.775 621.278 314.94 547.886Z" fill="black" stroke="white" stroke-width="5"/>
<circle cx="201.054" cy="547.886" r="39.6356" fill="white"/>
<path d="M170.335 359.832C105.377 304.773 68.958 302.044 4 359.832C72.8575 419.626 108.873 413.429 170.335 359.832Z" fill="#00A54A" stroke="white" stroke-width="5"/>
<circle cx="87.1676" cy="359.832" r="28.9448" fill="white"/>
<path d="M602.917 124.222C531.288 63.508 491.129 60.4983 419.5 124.222C495.429 190.155 535.143 183.322 602.917 124.222Z" fill="black" stroke="white" stroke-width="5"/>
<circle cx="511.209" cy="124.222" r="31.9173" fill="white"/>
<path d="M148 73.3324C94.0034 27.5643 63.7297 25.2954 9.73312 73.3324C66.9712 123.036 96.909 117.884 148 73.3324Z" fill="black" stroke="white" stroke-width="5"/>
<circle cx="78.8666" cy="73.3325" r="24.0604" fill="white"/>
<path d="M543.126 647.886C489.129 602.118 458.856 599.849 404.859 647.886C462.097 697.589 492.035 692.438 543.126 647.886Z" fill="#00A54A" stroke="white" stroke-width="5"/>
<circle cx="473.992" cy="647.886" r="24.0604" fill="white"/>
</svg>
